<?xml version="1.0" encoding="UTF-8" standalone="no"?>
<svg width="126px" height="153px" viewBox="0 0 126 153" version="1.1" xmlns="http://www.w3.org/2000/svg" xmlns:xlink="http://www.w3.org/1999/xlink">
    <!-- Generator: Sketch 3.8.3 (29802) - http://www.bohemiancoding.com/sketch -->
    <title>3</title>
    <desc>Created with Sketch.</desc>
    <defs></defs>
    <g id="Page-1" stroke="none" stroke-width="1" fill="none" fill-rule="evenodd">
        <g id="2" transform="translate(-342.000000, -1386.000000)">
            <g id="3" transform="translate(342.000000, 1386.000000)">
                <path d="M106.556043,108.517943 L121.91679,136.229464 L101.587562,133.77789 L92.1797195,152.712991 L76.5613791,124.536759 C72.1933984,125.494989 67.655675,126 63,126 C28.2060608,126 0,97.7939392 0,63 C0,28.2060608 28.2060608,0 63,0 C97.7939392,0 126,28.2060608 126,63 C126,80.8959619 118.53817,97.0491202 106.556043,108.517943 L106.556043,108.517943 Z" id="3-2" fill="#FF6B7A"></path>
                <path d="M29.15625,26.421875 L60.03125,26.421875 L60.03125,42.75 C59.8333323,45.026053 58.4974082,46.1640625 56.0234375,46.1640625 L29.15625,46.1640625 L29.15625,26.421875 Z M54.390625,30.875 L34.9453125,30.875 L34.9453125,41.5625 L53.3515625,41.5625 C54.0442743,41.6614588 54.390625,41.3151081 54.390625,40.5234375 L54.390625,30.875 Z M27.5234375,55.515625 L29.453125,55.515625 C29.8489603,55.7135427 30.0963537,55.4166706 30.1953125,54.625 L31.6796875,47.5 L37.3203125,47.5 L35.390625,57.296875 C35.1927073,59.1770927 33.9557405,60.1171875 31.6796875,60.1171875 L27.5234375,60.1171875 L27.5234375,55.515625 Z M56.9140625,60.1171875 C54.9348859,60.0182287 53.7968765,58.9791766 53.5,57 L52.015625,47.6484375 L57.8046875,47.6484375 L58.6953125,54.921875 C58.6953125,55.515628 59.0416632,55.7630213 59.734375,55.6640625 L61.0703125,55.6640625 L61.0703125,60.1171875 L56.9140625,60.1171875 Z M66.265625,33.6953125 L66.265625,28.6484375 L68.046875,28.6484375 L67.15625,26.2734375 L72.5,26.2734375 L73.390625,28.6484375 L75.765625,28.6484375 L76.2109375,26.2734375 L81.2578125,26.2734375 L80.8125,28.6484375 L99.515625,28.6484375 L99.515625,57 C99.7135427,58.8802177 98.8229266,59.7213552 96.84375,59.5234375 L86.6015625,59.5234375 L86.6015625,55.21875 L93.28125,55.21875 C93.9739618,55.3177088 94.3203125,54.9218795 94.3203125,54.03125 L94.3203125,33.6953125 L80.0703125,33.6953125 L76.8046875,57 C76.7057287,58.9791766 75.6171979,59.8697927 73.5390625,59.671875 L66.4140625,59.671875 L66.4140625,55.21875 L70.8671875,55.21875 C71.5598993,55.3177088 72.0052073,54.8724008 72.203125,53.8828125 L75.0234375,33.6953125 L66.265625,33.6953125 Z M86.15625,51.0625 C84.3749911,51.1614588 83.335939,50.2213641 83.0390625,48.2421875 L81.109375,38.4453125 L86.0078125,38.4453125 L87.4921875,45.421875 C87.5911463,46.3125045 88.0364544,46.7083338 88.828125,46.609375 L91.203125,46.609375 L91.203125,51.0625 L86.15625,51.0625 Z M27.078125,74.6953125 C27.9687545,74.992189 28.6119772,74.4479236 29.0078125,73.0625 L31.0859375,67.71875 L36.7265625,67.71875 L34.3515625,74.1015625 L34.3515625,101.859375 L29.15625,101.859375 L29.15625,79.296875 L27.078125,79.296875 L27.078125,74.6953125 Z M46.375,69.9453125 L46.375,67.8671875 L52.015625,67.8671875 L52.015625,69.9453125 L61.0703125,69.9453125 L61.0703125,74.25 L36.578125,74.25 L36.578125,69.9453125 L46.375,69.9453125 Z M37.0234375,80.9296875 L37.0234375,76.4765625 L60.1796875,76.4765625 L60.1796875,80.9296875 L37.0234375,80.9296875 Z M60.328125,87.1640625 L37.0234375,87.1640625 L37.0234375,83.0078125 L60.328125,83.0078125 L60.328125,87.1640625 Z M60.4765625,89.5390625 L60.4765625,98.296875 C60.4765625,100.37501 59.4375104,101.414062 57.359375,101.414062 L36.875,101.414062 L36.875,89.5390625 L60.4765625,89.5390625 Z M55.28125,93.6953125 L42.3671875,93.6953125 L42.3671875,97.109375 L54.8359375,97.109375 C55.0338552,97.109375 55.1822912,96.960939 55.28125,96.6640625 L55.28125,93.6953125 Z M65.5234375,73.2109375 L65.5234375,68.90625 L67.75,68.90625 L67.6015625,67.2734375 L73.5390625,67.2734375 L73.6875,68.90625 L79.328125,68.90625 L79.1796875,67.421875 L85.1171875,67.421875 L85.265625,68.90625 L91.5,68.90625 L91.6484375,67.421875 L97.5859375,67.421875 L97.2890625,68.90625 L99.0703125,68.90625 L99.0703125,73.2109375 L92.2421875,73.2109375 L92.984375,74.6953125 C93.0833338,74.992189 93.3307272,75.140625 93.7265625,75.140625 L99.0703125,75.140625 L99.0703125,78.40625 L90.90625,78.40625 C89.5208264,78.5052088 88.679689,78.1093795 88.3828125,77.21875 L86.6015625,73.2109375 L78.734375,73.2109375 L76.8046875,76.921875 C76.1119757,78.0104221 75.1224023,78.5052088 73.8359375,78.40625 L65.5234375,78.40625 L65.5234375,74.9921875 L70.8671875,74.9921875 C71.5598993,74.9921875 72.0052073,74.7447941 72.203125,74.25 L72.796875,73.2109375 L65.5234375,73.2109375 Z M65.375,79.59375 L79.328125,79.59375 L79.328125,77.0703125 L85.265625,77.0703125 L85.265625,79.59375 L99.0703125,79.59375 L99.0703125,82.7109375 L65.375,82.7109375 L65.375,79.59375 Z M98.7734375,87.3125 L65.375,87.3125 L65.375,84.1953125 L98.7734375,84.1953125 L98.7734375,87.3125 Z M65.375,91.9140625 L65.375,88.796875 L98.921875,88.796875 L98.921875,91.9140625 L65.375,91.9140625 Z M65.375,101.5625 L65.375,93.25 L98.625,93.25 L98.625,98.59375 C98.625,100.572927 97.5364692,101.5625 95.359375,101.5625 L65.375,101.5625 Z M93.1328125,98.1484375 C93.5286478,98.1484375 93.7265625,98.0494802 93.7265625,97.8515625 L93.7265625,96.6640625 L70.5703125,96.6640625 L70.5703125,98.1484375 L93.1328125,98.1484375 Z" id="3-1" fill="#FFFFFF"></path>
            </g>
        </g>
    </g>
</svg>