<?xml version="1.0" encoding="UTF-8" standalone="no"?>
<svg width="321px" height="599px" viewBox="0 0 321 599" version="1.1" xmlns="http://www.w3.org/2000/svg" xmlns:xlink="http://www.w3.org/1999/xlink">
    <!-- Generator: Sketch 3.8.2 (29753) - http://www.bohemiancoding.com/sketch -->
    <title>chevron</title>
    <desc>Created with Sketch.</desc>
    <defs></defs>
    <g id="Page-1" stroke="none" stroke-width="1" fill="none" fill-rule="evenodd">
        <g id="chevron" fill="#5B7FAD">
            <g id="Layer_4">
                <path d="M300.719551,579.024879 L317.035536,578.927815 L300.744217,551.126847 L316.79786,522.962476 L316.981809,522.960657 L300.744217,495.252927 L316.79786,467.089011 L316.981809,467.088102 L300.744217,439.378553 L316.79786,411.214182 L316.981353,411.213273 L300.744217,383.505088 L316.79786,355.340718 L316.981353,355.339353 L300.744217,327.631169 L316.682334,299.669476 L317.035536,299.667374 L316.91758,299.466078 L320.878885,299.442238 L320.779626,299.272589 L316.818095,299.296302 L300.744672,271.866406 L316.798315,243.702036 L316.982264,243.700216 L300.744672,215.992487 L316.798315,187.828571 L316.982264,187.827661 L300.744672,160.118112 L316.798315,131.953742 L316.981353,131.952832 L300.744672,104.244648 L316.798315,76.0802771 L316.981353,76.0789127 L300.744672,48.3707282 L316.798315,20.2063576 L320.87934,20.1817973 L320.780536,20.0121488 L300.09238,20.1359832 L299.995217,3.83914882 L272.163834,20.1122096 L243.968651,4.07611086 L243.96683,3.89236295 L216.228787,20.1122096 L188.03406,4.07611086 L188.033149,3.89236295 L160.293285,20.1122096 L132.098102,4.07611086 L132.097191,3.89327259 L104.358694,20.1122096 L76.1635106,4.07611086 L76.1621447,3.89327259 L48.4236468,20.1122096 L20.2284638,4.07611086 L20.0340426,0.0982414579 L20.1542236,20.1321985 L0.0983489362,20.0121488 L4.08102553,20.2063576 L20.1342128,48.3707282 L3.89753191,76.0789127 L4.08102553,76.0802771 L20.1342128,104.244648 L3.89753191,131.952832 L4.08102553,131.953742 L20.1342128,160.118112 L3.89662128,187.827661 L4.08102553,187.828571 L20.1342128,215.992487 L3.89662128,243.700216 L4.08102553,243.702036 L20.1342128,271.866406 L4.06238049,299.293589 L0.554123404,299.272589 L3.97687149,299.439513 L3.84334894,299.667374 L4.65341977,299.672194 L20.5899872,327.631169 L4.35330638,355.339353 L4.53634468,355.340718 L20.5899872,383.505088 L4.35330638,411.213273 L4.53634468,411.214182 L20.5899872,439.378553 L4.35239574,467.088102 L4.53634468,467.089011 L20.5899872,495.252927 L4.35239574,522.960657 L4.53634468,522.962476 L20.5899872,551.126847 L4.2991234,578.927815 L20.781403,579.025868 L20.662383,598.866282 L20.832217,598.964979 L20.8568043,594.888413 L49.0519872,578.852314 L76.7904851,595.071251 L76.7918511,594.888413 L104.987034,578.852314 L132.725532,595.071251 L132.726443,594.888413 L160.921626,578.852314 L188.661489,595.072161 L188.6624,594.888413 L216.857128,578.852314 L244.59517,595.072161 L244.596991,594.888413 L272.792174,578.852314 L300.623557,595.125375 L300.719551,579.024879 L300.719551,579.024879 Z M272.632091,550.510652 L288.334949,522.962476 L288.518443,522.960657 L272.280851,495.252927 L288.334949,467.089011 L288.518443,467.088102 L272.280851,439.378553 L288.334949,411.214182 L288.518443,411.213273 L272.280851,383.505088 L288.334949,355.340718 L288.518443,355.339353 L272.280851,327.631169 L288.334949,299.466798 L288.454587,299.466082 L272.280851,271.866406 L288.335404,243.702036 L288.518443,243.700216 L272.280851,215.992487 L288.335404,187.828571 L288.518443,187.827661 L272.280851,160.118112 L288.335404,131.953742 L288.518443,131.952832 L272.280851,104.244648 L288.335404,76.0802771 L288.518443,76.0789127 L272.327017,48.4495066 L272.163834,48.5449248 L243.968651,32.5079165 L243.96683,32.3250782 L216.228787,48.5449248 L188.03406,32.5079165 L188.033149,32.3250782 L160.293285,48.5449248 L132.098102,32.5079165 L132.097191,32.3250782 L104.358694,48.5449248 L76.1635106,32.5079165 L76.1621447,32.3250782 L48.5329539,48.4810084 L32.3604426,76.0789127 L32.5434809,76.0802771 L48.5975787,104.244648 L32.3604426,131.952832 L32.5434809,131.953742 L48.5975787,160.118112 L32.3604426,187.827661 L32.5434809,187.828571 L48.5975787,215.992487 L32.3604426,243.700216 L32.5434809,243.702036 L48.5975787,271.866406 L32.4254358,299.463363 L32.9992553,299.466798 L49.0538085,327.631169 L32.816217,355.339353 L32.9992553,355.340718 L49.0538085,383.505088 L32.816217,411.213273 L32.9992553,411.214182 L49.0538085,439.378553 L32.816217,467.088102 L32.9992553,467.089011 L49.0538085,495.252927 L32.816217,522.960657 L32.9992553,522.962476 L48.7489183,550.59198 L49.0519872,550.419599 L76.7904851,566.639901 L76.7918511,566.456607 L104.987034,550.419599 L132.725532,566.639901 L132.726443,566.456607 L160.921626,550.419599 L188.661489,566.639901 L188.6624,566.456607 L216.857128,550.419599 L244.59517,566.639901 L244.596991,566.456607 L272.632091,550.510652 L272.632091,550.510652 Z" id="Combined-Shape"></path>
            </g>
        </g>
    </g>
</svg>