<?xml version="1.0" encoding="UTF-8" standalone="no"?>
<svg width="464px" height="384px" viewBox="0 0 464 384" version="1.1" xmlns="http://www.w3.org/2000/svg" xmlns:xlink="http://www.w3.org/1999/xlink">
    <!-- Generator: Sketch 3.8.2 (29753) - http://www.bohemiancoding.com/sketch -->
    <title>条形图3</title>
    <desc>Created with Sketch.</desc>
    <defs></defs>
    <g id="Page-1" stroke="none" stroke-width="1" fill="none" fill-rule="evenodd">
        <g id="条形图3">
            <path d="M421.401478,42.1593982 L459.753007,42.1593982 L459.753007,3.44325664 L421.401478,3.44325664 L421.401478,42.1593982 Z M421.401478,84.291469 L459.753007,84.291469 L459.753007,45.5753274 L421.401478,45.5753274 L421.401478,84.291469 Z M421.401478,126.42354 L459.753007,126.42354 L459.753007,87.7073982 L421.401478,87.7073982 L421.401478,126.42354 Z M421.401478,168.555611 L459.753007,168.555611 L459.753007,129.839469 L421.401478,129.839469 L421.401478,168.555611 Z M421.401478,210.687681 L459.753007,210.687681 L459.753007,171.97154 L421.401478,171.97154 L421.401478,210.687681 Z M421.401478,252.819752 L459.753007,252.819752 L459.753007,214.103611 L421.401478,214.103611 L421.401478,252.819752 Z M421.401478,294.951823 L459.753007,294.951823 L459.753007,256.235681 L421.401478,256.235681 L421.401478,294.951823 Z M421.401478,337.083894 L459.753007,337.083894 L459.753007,298.367752 L421.401478,298.367752 L421.401478,337.083894 Z M421.401478,379.215965 L459.753007,379.215965 L459.753007,340.499823 L421.401478,340.499823 L421.401478,379.215965 Z M4.02868841,42.1593982 L42.3836014,42.1593982 L42.3836014,3.44325664 L4.02868841,3.44325664 L4.02868841,42.1593982 Z M45.7676594,42.1593982 L84.1191884,42.1593982 L84.1191884,3.44325664 L45.7676594,3.44325664 L45.7676594,42.1593982 Z M87.5032464,42.1593982 L125.854775,42.1593982 L125.854775,3.44325664 L87.5032464,3.44325664 L87.5032464,42.1593982 Z M129.238833,42.1593982 L167.593746,42.1593982 L167.593746,3.44325664 L129.238833,3.44325664 L129.238833,42.1593982 Z M170.977804,42.1593982 L209.332717,42.1593982 L209.332717,3.44325664 L170.977804,3.44325664 L170.977804,42.1593982 Z M212.716775,42.1593982 L251.068304,42.1593982 L251.068304,3.44325664 L212.716775,3.44325664 L212.716775,42.1593982 Z M254.452362,42.1593982 L292.803891,42.1593982 L292.803891,3.44325664 L254.452362,3.44325664 L254.452362,42.1593982 Z M296.187949,42.1593982 L334.542862,42.1593982 L334.542862,3.44325664 L296.187949,3.44325664 L296.187949,42.1593982 Z M337.92692,42.1593982 L376.281833,42.1593982 L376.281833,3.44325664 L337.92692,3.44325664 L337.92692,42.1593982 Z M379.665891,84.291469 L418.01742,84.291469 L418.01742,45.5753274 L379.665891,45.5753274 L379.665891,84.291469 Z M379.665891,126.42354 L418.01742,126.42354 L418.01742,87.7073982 L379.665891,87.7073982 L379.665891,126.42354 Z M379.665891,168.555611 L418.01742,168.555611 L418.01742,129.839469 L379.665891,129.839469 L379.665891,168.555611 Z M379.665891,210.687681 L418.01742,210.687681 L418.01742,171.97154 L379.665891,171.97154 L379.665891,210.687681 Z M379.665891,252.819752 L418.01742,252.819752 L418.01742,214.103611 L379.665891,214.103611 L379.665891,252.819752 Z M379.665891,294.951823 L418.01742,294.951823 L418.01742,256.235681 L379.665891,256.235681 L379.665891,294.951823 Z M379.665891,337.083894 L418.01742,337.083894 L418.01742,298.367752 L379.665891,298.367752 L379.665891,337.083894 Z M379.665891,379.215965 L418.01742,379.215965 L418.01742,340.499823 L379.665891,340.499823 L379.665891,379.215965 Z M337.92692,379.215965 L376.281833,379.215965 L376.281833,340.499823 L337.92692,340.499823 L337.92692,379.215965 Z M296.187949,379.215965 L334.542862,379.215965 L334.542862,340.499823 L296.187949,340.499823 L296.187949,379.215965 Z M254.452362,379.215965 L292.803891,379.215965 L292.803891,340.499823 L254.452362,340.499823 L254.452362,379.215965 Z M212.716775,379.215965 L251.068304,379.215965 L251.068304,340.499823 L212.716775,340.499823 L212.716775,379.215965 Z M170.977804,379.215965 L209.332717,379.215965 L209.332717,340.499823 L170.977804,340.499823 L170.977804,379.215965 Z M129.238833,379.215965 L167.593746,379.215965 L167.593746,340.499823 L129.238833,340.499823 L129.238833,379.215965 Z M87.5032464,379.215965 L125.854775,379.215965 L125.854775,340.499823 L87.5032464,340.499823 L87.5032464,379.215965 Z M45.7676594,379.215965 L84.1191884,379.215965 L84.1191884,340.499823 L45.7676594,340.499823 L45.7676594,379.215965 Z M4.02868841,379.215965 L42.3836014,379.215965 L42.3836014,340.499823 L4.02868841,340.499823 L4.02868841,379.215965 Z M4.02868841,84.291469 L42.3836014,84.291469 L42.3836014,45.5753274 L4.02868841,45.5753274 L4.02868841,84.291469 Z M45.7676594,84.291469 L84.1191884,84.291469 L84.1191884,45.5753274 L45.7676594,45.5753274 L45.7676594,84.291469 Z M87.5032464,84.291469 L125.854775,84.291469 L125.854775,45.5753274 L87.5032464,45.5753274 L87.5032464,84.291469 Z M129.238833,84.291469 L167.593746,84.291469 L167.593746,45.5753274 L129.238833,45.5753274 L129.238833,84.291469 Z M170.977804,84.291469 L209.332717,84.291469 L209.332717,45.5753274 L170.977804,45.5753274 L170.977804,84.291469 Z M212.716775,84.291469 L251.068304,84.291469 L251.068304,45.5753274 L212.716775,45.5753274 L212.716775,84.291469 Z M254.452362,84.291469 L292.803891,84.291469 L292.803891,45.5753274 L254.452362,45.5753274 L254.452362,84.291469 Z M296.187949,84.291469 L334.542862,84.291469 L334.542862,45.5753274 L296.187949,45.5753274 L296.187949,84.291469 Z M337.92692,84.291469 L376.281833,84.291469 L376.281833,45.5753274 L337.92692,45.5753274 L337.92692,84.291469 Z M337.92692,126.42354 L376.281833,126.42354 L376.281833,87.7073982 L337.92692,87.7073982 L337.92692,126.42354 Z M337.92692,168.555611 L376.281833,168.555611 L376.281833,129.839469 L337.92692,129.839469 L337.92692,168.555611 Z M337.92692,210.687681 L376.281833,210.687681 L376.281833,171.97154 L337.92692,171.97154 L337.92692,210.687681 Z M337.92692,252.819752 L376.281833,252.819752 L376.281833,214.103611 L337.92692,214.103611 L337.92692,252.819752 Z M337.92692,294.951823 L376.281833,294.951823 L376.281833,256.235681 L337.92692,256.235681 L337.92692,294.951823 Z M337.92692,337.083894 L376.281833,337.083894 L376.281833,298.367752 L337.92692,298.367752 L337.92692,337.083894 Z M296.187949,337.083894 L334.542862,337.083894 L334.542862,298.367752 L296.187949,298.367752 L296.187949,337.083894 Z M254.452362,337.083894 L292.803891,337.083894 L292.803891,298.367752 L254.452362,298.367752 L254.452362,337.083894 Z M212.716775,337.083894 L251.068304,337.083894 L251.068304,298.367752 L212.716775,298.367752 L212.716775,337.083894 Z M170.977804,337.083894 L209.332717,337.083894 L209.332717,298.367752 L170.977804,298.367752 L170.977804,337.083894 Z M129.238833,337.083894 L167.593746,337.083894 L167.593746,298.367752 L129.238833,298.367752 L129.238833,337.083894 Z M87.5032464,337.083894 L125.854775,337.083894 L125.854775,298.367752 L87.5032464,298.367752 L87.5032464,337.083894 Z M45.7676594,337.083894 L84.1191884,337.083894 L84.1191884,298.367752 L45.7676594,298.367752 L45.7676594,337.083894 Z M4.02868841,337.083894 L42.3836014,337.083894 L42.3836014,298.367752 L4.02868841,298.367752 L4.02868841,337.083894 Z M4.02868841,294.951823 L42.3836014,294.951823 L42.3836014,256.235681 L4.02868841,256.235681 L4.02868841,294.951823 Z M4.02868841,252.819752 L42.3836014,252.819752 L42.3836014,214.103611 L4.02868841,214.103611 L4.02868841,252.819752 Z M4.02868841,210.687681 L42.3836014,210.687681 L42.3836014,171.97154 L4.02868841,171.97154 L4.02868841,210.687681 Z M4.02868841,168.555611 L42.3836014,168.555611 L42.3836014,129.839469 L4.02868841,129.839469 L4.02868841,168.555611 Z M4.02868841,126.42354 L42.3836014,126.42354 L42.3836014,87.7073982 L4.02868841,87.7073982 L4.02868841,126.42354 Z M45.7676594,126.42354 L84.1191884,126.42354 L84.1191884,87.7073982 L45.7676594,87.7073982 L45.7676594,126.42354 Z M87.5032464,126.42354 L125.854775,126.42354 L125.854775,87.7073982 L87.5032464,87.7073982 L87.5032464,126.42354 Z M129.238833,126.42354 L167.593746,126.42354 L167.593746,87.7073982 L129.238833,87.7073982 L129.238833,126.42354 Z M170.977804,126.42354 L209.332717,126.42354 L209.332717,87.7073982 L170.977804,87.7073982 L170.977804,126.42354 Z M212.716775,126.42354 L251.068304,126.42354 L251.068304,87.7073982 L212.716775,87.7073982 L212.716775,126.42354 Z M254.452362,126.42354 L292.803891,126.42354 L292.803891,87.7073982 L254.452362,87.7073982 L254.452362,126.42354 Z M296.187949,126.42354 L334.542862,126.42354 L334.542862,87.7073982 L296.187949,87.7073982 L296.187949,126.42354 Z M296.187949,168.555611 L334.542862,168.555611 L334.542862,129.839469 L296.187949,129.839469 L296.187949,168.555611 Z M296.187949,210.687681 L334.542862,210.687681 L334.542862,171.97154 L296.187949,171.97154 L296.187949,210.687681 Z M296.187949,252.819752 L334.542862,252.819752 L334.542862,214.103611 L296.187949,214.103611 L296.187949,252.819752 Z M296.187949,294.951823 L334.542862,294.951823 L334.542862,256.235681 L296.187949,256.235681 L296.187949,294.951823 Z M254.452362,294.951823 L292.803891,294.951823 L292.803891,256.235681 L254.452362,256.235681 L254.452362,294.951823 Z M212.716775,294.951823 L251.068304,294.951823 L251.068304,256.235681 L212.716775,256.235681 L212.716775,294.951823 Z M170.977804,294.951823 L209.332717,294.951823 L209.332717,256.235681 L170.977804,256.235681 L170.977804,294.951823 Z M129.238833,294.951823 L167.593746,294.951823 L167.593746,256.235681 L129.238833,256.235681 L129.238833,294.951823 Z M87.5032464,294.951823 L125.854775,294.951823 L125.854775,256.235681 L87.5032464,256.235681 L87.5032464,294.951823 Z M45.7676594,294.951823 L84.1191884,294.951823 L84.1191884,256.235681 L45.7676594,256.235681 L45.7676594,294.951823 Z M45.7676594,252.819752 L84.1191884,252.819752 L84.1191884,214.103611 L45.7676594,214.103611 L45.7676594,252.819752 Z M45.7676594,210.687681 L84.1191884,210.687681 L84.1191884,171.97154 L45.7676594,171.97154 L45.7676594,210.687681 Z M45.7676594,168.555611 L84.1191884,168.555611 L84.1191884,129.839469 L45.7676594,129.839469 L45.7676594,168.555611 Z M87.5032464,168.555611 L125.854775,168.555611 L125.854775,129.839469 L87.5032464,129.839469 L87.5032464,168.555611 Z M129.238833,168.555611 L167.593746,168.555611 L167.593746,129.839469 L129.238833,129.839469 L129.238833,168.555611 Z M170.977804,168.555611 L209.332717,168.555611 L209.332717,129.839469 L170.977804,129.839469 L170.977804,168.555611 Z M212.716775,168.555611 L251.068304,168.555611 L251.068304,129.839469 L212.716775,129.839469 L212.716775,168.555611 Z M254.452362,168.555611 L292.803891,168.555611 L292.803891,129.839469 L254.452362,129.839469 L254.452362,168.555611 Z M254.452362,210.687681 L292.803891,210.687681 L292.803891,171.97154 L254.452362,171.97154 L254.452362,210.687681 Z M254.452362,252.819752 L292.803891,252.819752 L292.803891,214.103611 L254.452362,214.103611 L254.452362,252.819752 Z M212.716775,252.819752 L251.068304,252.819752 L251.068304,214.103611 L212.716775,214.103611 L212.716775,252.819752 Z M170.977804,252.819752 L209.332717,252.819752 L209.332717,214.103611 L170.977804,214.103611 L170.977804,252.819752 Z M129.238833,252.819752 L167.593746,252.819752 L167.593746,214.103611 L129.238833,214.103611 L129.238833,252.819752 Z M87.5032464,252.819752 L125.854775,252.819752 L125.854775,214.103611 L87.5032464,214.103611 L87.5032464,252.819752 Z M87.5032464,210.687681 L125.854775,210.687681 L125.854775,171.97154 L87.5032464,171.97154 L87.5032464,210.687681 Z M129.238833,210.687681 L167.593746,210.687681 L167.593746,171.97154 L129.238833,171.97154 L129.238833,210.687681 Z M212.716775,210.687681 L251.068304,210.687681 L251.068304,171.97154 L212.716775,171.97154 L212.716775,210.687681 Z M170.977804,210.687681 L209.332717,210.687681 L209.332717,171.97154 L170.977804,171.97154 L170.977804,210.687681 Z M379.665891,42.1593982 L418.01742,42.1593982 L418.01742,3.44325664 L379.665891,3.44325664 L379.665891,42.1593982 Z M421.401478,0.0273274336 L418.01742,0.0273274336 L379.665891,0.0273274336 L376.281833,0.0273274336 L337.92692,0.0273274336 L334.542862,0.0273274336 L296.187949,0.0273274336 L292.803891,0.0273274336 L254.452362,0.0273274336 L251.068304,0.0273274336 L212.716775,0.0273274336 L209.332717,0.0273274336 L170.977804,0.0273274336 L167.593746,0.0273274336 L129.238833,0.0273274336 L125.854775,0.0273274336 L87.5032464,0.0273274336 L84.1191884,0.0273274336 L45.7676594,0.0273274336 L42.3836014,0.0273274336 L0.644630435,0.0273274336 L0.0828768116,0.0273274336 L0.0828768116,42.1593982 L0.0828768116,45.5753274 L0.0828768116,84.291469 L0.0828768116,87.7073982 L0.0828768116,126.42354 L0.0828768116,129.839469 L0.0828768116,168.555611 L0.0828768116,171.97154 L0.0828768116,210.687681 L0.0828768116,214.103611 L0.0828768116,252.819752 L0.0828768116,256.235681 L0.0828768116,294.951823 L0.0828768116,298.367752 L0.0828768116,337.083894 L0.0828768116,340.499823 L0.0828768116,382.631894 L0.644630435,382.631894 L0.644630435,383.752319 L42.3836014,383.752319 L45.7676594,383.752319 L84.1191884,383.752319 L87.5032464,383.752319 L125.854775,383.752319 L129.238833,383.752319 L167.593746,383.752319 L170.977804,383.752319 L209.332717,383.752319 L212.716775,383.752319 L251.068304,383.752319 L254.452362,383.752319 L292.803891,383.752319 L296.187949,383.752319 L334.542862,383.752319 L337.92692,383.752319 L376.281833,383.752319 L379.665891,383.752319 L418.01742,383.752319 L421.401478,383.752319 L463.137065,383.752319 L463.137065,382.631894 L463.137065,340.499823 L463.137065,337.083894 L463.137065,298.367752 L463.137065,294.951823 L463.137065,256.235681 L463.137065,252.819752 L463.137065,214.103611 L463.137065,210.687681 L463.137065,171.97154 L463.137065,168.555611 L463.137065,129.839469 L463.137065,126.42354 L463.137065,87.7073982 L463.137065,84.291469 L463.137065,45.5753274 L463.137065,42.1593982 L463.137065,0.0273274336 L421.401478,0.0273274336 Z" id="Fill-571" fill="#348FAA"></path>
            <polygon id="Fill-572" fill="#54BC9B" points="24.3330362 315.993947 64.3765942 315.993947 64.3765942 171.97154 24.3330362 171.97154"></polygon>
            <polygon id="Fill-573" fill="#F68D35" points="107.242457 227.179788 147.286014 227.179788 147.286014 171.97154 107.242457 171.97154"></polygon>
            <polygon id="Fill-574" fill="#F14946" points="190.151877 199.852354 230.195435 199.852354 230.195435 171.97154 190.151877 171.97154"></polygon>
            <polygon id="Fill-575" fill="#8562A4" points="273.061297 168.623929 313.104855 168.623929 313.104855 96.3155398 273.061297 96.3155398"></polygon>
            <polygon id="Fill-576" fill="#54BC9B" points="355.970717 168.623929 396.014275 168.623929 396.014275 24.0003186 355.970717 24.0003186"></polygon>
            <polygon id="Fill-577" fill="#348FAA" points="0.0828768116 175.008301 463.137065 175.008301 463.137065 164.313027 0.0828768116 164.313027"></polygon>
        </g>
    </g>
</svg>