<?xml version="1.0" encoding="UTF-8" standalone="no"?>
<svg width="240px" height="227px" viewBox="0 0 240 227" version="1.1" xmlns="http://www.w3.org/2000/svg" xmlns:xlink="http://www.w3.org/1999/xlink">
    <!-- Generator: Sketch 3.8.3 (29802) - http://www.bohemiancoding.com/sketch -->
    <title>1</title>
    <desc>Created with Sketch.</desc>
    <defs></defs>
    <g id="Page-1" stroke="none" stroke-width="1" fill="none" fill-rule="evenodd">
        <g id="2" transform="translate(-151.000000, -1592.000000)">
            <g id="1" transform="translate(151.000000, 1592.000000)">
                <path d="M0,92 L240,92 L240,192 L0,192 L0,92 L0,92 Z M120,0 C157.585938,0 240,92 240,92 L0,92 C0,92 82.4140625,0 120,0 L120,0 Z" id="1-4" fill="#BC2414"></path>
                <rect id="1-3" fill="#EDD236" x="72" y="69" width="116" height="142"></rect>
                <rect id="1-2" fill="#FFE135" x="54" y="60" width="116" height="142"></rect>
                <g id="1-1" transform="translate(0.000000, 69.000000)" fill="#EA2D19">
                    <path d="M237.798604,24.4193905 C239.162811,25.813891 240,27.6997761 240,29.7756681 L240,150.224332 C240,154.518715 236.421078,158 231.997639,158 L8.0023611,158 C3.5827791,158 0,154.518736 0,150.224332 L0,29.7756681 C0,27.6994188 0.836584214,25.8132336 2.20072392,24.4186579 C15.5332635,38.9469574 86.0518881,114 120,114 C153.947541,114 224.464366,38.9494805 237.798604,24.4193905 Z" id="Combined-Shape"></path>
                    <path d="M100.730322,14.9897541 C99.8293035,16.0917633 98.6780198,17.3815955 97.276436,18.8592896 L96.0750845,14.9897541 C99.8793833,10.7069458 102.669995,5.71041107 104.447003,0 L108.013515,1.65300546 C107.137525,4.35793702 106.01127,6.90003364 104.634714,9.27937158 L104.634714,34.7882514 L100.730322,34.7882514 L100.730322,14.9897541 Z M106.549368,8.79098361 L113.532224,8.79098361 L113.569766,7.10040984 L113.569766,0.150273224 L117.399074,0.150273224 L117.399074,7.96448087 L117.361532,8.79098361 L129.863096,8.79098361 L129.863096,12.5478142 L122.617445,12.5478142 L122.617445,29.6789617 C122.617445,30.3051033 122.930293,30.6181694 123.556001,30.6181694 L125.996246,30.6181694 C126.246529,30.6181694 126.53435,30.4178071 126.859717,30.0170765 C127.11,29.5913002 127.285195,27.8256075 127.385308,24.7199454 L130.876736,25.8845628 C130.52634,29.9419602 130.088352,32.3212624 129.562758,33.022541 C128.937051,33.7238195 128.073588,34.1120215 126.972344,34.1871585 L122.504818,34.1871585 C120.102103,34.1871585 118.900763,32.9098488 118.900763,30.3551913 L118.900763,12.5478142 L117.136278,12.5478142 C116.285317,22.3907596 113.31951,29.7916419 108.238769,34.7506831 L105.310474,32.1960383 C109.815565,27.838093 112.481037,21.2887504 113.30697,12.5478142 L106.549368,12.5478142 L106.549368,8.79098361 Z M122.504818,0.525956284 C124.882505,2.10383303 126.872223,3.71925403 128.474033,5.37226776 L125.808535,8.07718579 C124.381923,6.42417206 122.429746,4.70856991 119.951946,2.93032787 L122.504818,0.525956284 Z M96.8259292,39.7096995 L111.655112,39.7096995 L111.655112,37.5307377 L115.559504,37.5307377 L115.559504,39.7096995 L130.388687,39.7096995 L130.388687,43.0157104 L115.559504,43.0157104 L115.559504,44.443306 L127.272682,44.443306 L127.272682,55.864071 L126.221499,55.864071 C127.973479,57.3918565 129.425097,58.7943925 130.576398,60.0717213 L127.723189,62.0252732 C127.172566,61.3490403 126.521841,60.6102044 125.770992,59.8087432 C120.189686,60.2595651 110.954388,60.6352444 98.0648229,60.9357923 L97.5767739,57.5546448 L111.655112,57.3668033 L111.655112,55.864071 L99.9419347,55.864071 L99.9419347,44.443306 L111.655112,44.443306 L111.655112,43.0157104 L96.8259292,43.0157104 L96.8259292,39.7096995 Z M122.992867,57.0662568 L122.129396,56.2773224 L122.805156,55.864071 L115.559504,55.864071 L115.559504,57.2916667 L122.992867,57.0662568 Z M123.556001,52.9713115 L123.556001,51.3934426 L115.559504,51.3934426 L115.559504,52.9713115 L123.556001,52.9713115 Z M111.655112,52.9713115 L111.655112,51.3934426 L103.658616,51.3934426 L103.658616,52.9713115 L111.655112,52.9713115 Z M103.658616,48.9139344 L111.655112,48.9139344 L111.655112,47.3360656 L103.658616,47.3360656 L103.658616,48.9139344 Z M115.559504,47.3360656 L115.559504,48.9139344 L123.556001,48.9139344 L123.556001,47.3360656 L115.559504,47.3360656 Z M103.39582,62.5887978 C102.494802,65.8447339 101.255921,68.6748514 99.679139,71.079235 L96.4505068,69.0129781 C98.1023734,66.7338228 99.2536571,64.3545206 99.9043924,61.875 L103.39582,62.5887978 Z M109.064698,71.7554645 C106.461756,71.7554645 105.160305,70.4906775 105.160305,67.9610656 L105.160305,61.7998634 L108.989613,61.7998634 L108.989613,67.1345628 C108.989613,67.8358414 109.39006,68.1864754 110.190965,68.1864754 L118.375172,68.1864754 C118.825681,68.1864754 119.176072,68.023681 119.426355,67.6980874 C119.701666,67.3474482 119.876861,66.3456367 119.951946,64.692623 L123.518458,65.8196721 C123.218119,68.724969 122.730075,70.4405711 122.054311,70.9665301 C121.378547,71.492489 120.377431,71.7554645 119.050932,71.7554645 L109.064698,71.7554645 Z M114.207984,60.8230874 C116.060077,62.5261925 117.46164,63.9788191 118.412714,65.1810109 L115.521962,67.2096995 C114.39569,65.7069597 112.981613,64.1791972 111.27969,62.6263661 L114.207984,60.8230874 Z M125.433112,61.010929 C127.93594,63.8661345 129.788006,66.2830047 130.989363,68.261612 L127.948442,70.3654372 C126.646971,68.2115102 124.819934,65.7195041 122.467276,62.8893443 L125.433112,61.010929 Z M103.846327,98.4665301 L103.846327,96.5129781 C102.019263,97.8904896 100.129656,99.0425728 98.1774496,99.9692623 L96,96.6632514 C99.4539029,95.1855573 102.344626,93.2695928 104.672256,90.9153005 L97.3139782,90.9153005 L97.3139782,87.3838798 L107.600551,87.3838798 C108.251286,86.4070989 108.839442,85.3802422 109.365036,84.3032787 L99.3788012,84.3032787 L99.3788012,80.8469945 L104.597172,80.8469945 C103.771239,78.9936155 102.932804,77.4282851 102.081842,76.1509563 L105.460643,75.0239071 C106.38669,76.4765555 107.237638,78.1420671 108.013515,80.0204918 L106.173946,80.8469945 L110.791641,80.8469945 C111.417348,78.8683872 111.892878,76.8522416 112.218246,74.7984973 L116.122638,75.2868852 C115.79727,77.2154013 115.346768,79.0687525 114.771118,80.8469945 L120.928044,80.8469945 L119.463897,80.0204918 C120.640226,78.4676607 121.566259,76.7520586 122.242022,74.8736339 L125.508197,76.0758197 C124.73232,77.9291987 123.843829,79.5195744 122.842698,80.8469945 L127.835815,80.8469945 L127.835815,84.3032787 L113.494682,84.3032787 C113.044172,85.3802422 112.5311,86.4070989 111.95545,87.3838798 L129.900638,87.3838798 L129.900638,90.9153005 L122.842698,90.9153005 C124.644734,93.0191362 127.422832,94.8975327 131.177074,96.5505464 L128.624202,99.7438525 C126.872223,98.7169803 125.295464,97.640033 123.893881,96.5129781 C123.718683,99.7939599 123.543487,102.173262 123.368289,103.650956 C123.06795,105.779838 122.567392,107.320123 121.8666,108.271858 C121.14078,109.12341 120.027038,109.586748 118.525341,109.661885 L112.368414,109.661885 L111.354774,105.980191 C113.432122,106.10542 115.196589,106.168033 116.648229,106.168033 C117.974728,106.168033 118.850705,105.692172 119.276186,104.740437 C119.701666,103.813748 119.989487,101.722466 120.139657,98.4665301 L111.95545,98.4665301 C111.204601,101.071279 110.228513,103.16256 109.027156,104.740437 C107.400317,106.643908 104.997638,108.397078 101.819046,110 L99.3788012,106.844262 C102.181969,105.64207 104.309341,104.327193 105.760981,102.89959 C106.812169,101.772535 107.663118,100.294863 108.313853,98.4665301 L103.846327,98.4665301 Z M109.590289,90.9153005 C108.489045,92.292812 107.262677,93.6076895 105.91115,94.8599727 L122.016769,94.8599727 C120.665242,93.5826439 119.576528,92.2677663 118.750594,90.9153005 L109.590289,90.9153005 Z" id="优"></path>
                </g>
            </g>
        </g>
    </g>
</svg>