<?xml version="1.0" encoding="utf-8"?>
<!-- Generator: Adobe Illustrator 19.0.0, SVG Export Plug-In . SVG Version: 6.00 Build 0)  -->
<svg version="1.1" id="图层_1" xmlns="http://www.w3.org/2000/svg" xmlns:xlink="http://www.w3.org/1999/xlink" x="0px" y="0px"
	 viewBox="-9 84 181 34" style="enable-background:new -9 84 181 34;" xml:space="preserve">
<style type="text/css">
	.st0{fill:#73BF4B;}
</style>
<title>Fill 101</title>
<desc>Created with Sketch.</desc>
<g id="Page-1">
	<path id="Fill-101" class="st0" d="M152.5,99.3c-4.2-1.3-5.9-7-9.3-10.3c6,0.7,10.6,4.5,13.5,10c-0.7-0.7-1.3-1.5-2-2.2
		c-1.1-1.2-2.1-2.7-3.5-3.7c-0.5-0.4-1.2,0.4-0.9,0.9c0.9,1.4,2.3,2.5,3.4,3.7c0.5,0.5,1,1,1.5,1.5
		C154.4,99.3,153.5,99.3,152.5,99.3 M127.5,111.5c1.9-3,4.1-7.1,6.9-9.5c2,0,4,0,6.1,0.1c-0.5,0.9-1.1,1.7-1.8,2.5
		c-1.3,1.4-2.9,2.1-4.5,3.2c-0.7,0.5-0.2,1.4,0.5,1.3c3.3-0.6,5.8-3.8,7.1-6.9c0.6,0,1.3,0,1.9,0
		C144.1,110.7,134.3,111.8,127.5,111.5 M127.3,97.4c-0.5-0.4-1-0.8-1.5-1.2c-1.3-1-2.8-2.3-4.5-2.6c-0.6-0.1-1.1,0.6-0.6,1
		c1.1,1.1,2.7,1.6,3.9,2.5c0.8,0.6,1.6,1.2,2.4,1.8c0,0.1,0,0.2-0.1,0.2c-0.1,0.2,0,0.5,0.1,0.7c-1.5,0-3,0-4.4,0.1
		c-1.9-1.2-3.6-3.2-4.7-4.2c-1.6-1.4-3.2-2.9-4.9-4.3C118.4,90.7,127.7,90.9,127.3,97.4 M108.6,112.5c-2.8,2.5-6.5,3.6-10.2,3.4
		c0.9-0.9,1.6-2,2.2-3.4c1.4-3.4,1.9-10.2,7-9.8c0.3,0,0.5-0.2,0.5-0.4c1,0,2,0,2.9-0.1c-0.8,1.4-1.7,2.7-2.9,3.8
		c-0.6,0.6-1.4,1.1-2.1,1.5c-0.7,0.4-1.4,0.6-2,1.2c-0.4,0.4-0.1,1.1,0.4,1.1c1.7,0.1,3.5-1.7,4.6-2.7c1.4-1.3,2.4-2.9,3.2-4.7
		c0-0.1,0-0.1,0-0.2c0.4,0,0.8,0,1.2,0C112.7,106.2,111.8,109.6,108.6,112.5 M100.3,99.8c-1-1.7-2.2-3.2-3.6-4.5
		c-1.5-1.5-3.6-3.5-5.6-4c-0.7-0.2-1.2,0.7-0.7,1.2c1.5,1.5,3.6,2.4,5.3,3.9c1.3,1.2,2.3,2.4,3.3,3.8c-1,0-2,0-3.1,0.1
		c-4.2-1.8-6.6-5-7.9-9.4c-0.5-1.6-1-3-1.8-4.3c2.6,0.7,5.1,1.7,7.5,3C98,91.9,101.1,94.6,100.3,99.8 M65.9,113.2
		c2-4.5,5.3-7.9,9.6-10.2c1.6,0,3.2-0.1,4.8-0.1c-2.6,2.7-5.5,4.2-8.9,5.9c-0.9,0.5-0.3,2,0.7,1.7c3.9-1.1,7.4-4.2,9.9-7.4
		C80.5,110.6,73.4,115.1,65.9,113.2 M71.6,100.8c-0.7-0.8-1.3-1.7-1.8-2.6c-0.6-1.2-0.9-2.5-1.6-3.6C67.9,94,67,94.2,67,94.9
		c0,1.4,0.9,2.9,1.6,4c0.4,0.7,0.9,1.3,1.4,1.9c-1,0-2,0.1-3,0.1c-3.5-2-3.5-7.5-4-11.4c5.4,0.7,9.1,5.3,9.3,10.7c0,0.2,0,0.4,0,0.5
		C72,100.8,71.8,100.8,71.6,100.8 M55.4,104c-1.1,3.5-1.8,7.3-4.9,9.6c-3.9,2.9-8.8,1.3-13-0.4c2.3-2.4,7-7.4,10.3-9.3
		c1.3,0,2.6-0.1,3.9-0.1c-0.5,1.2-1.2,2.4-2.2,3.3c-1.2,1.2-2.7,1.6-4,2.5c-0.5,0.4-0.4,1.3,0.3,1.3c3.4,0.1,6.5-4,7.2-7.2
		c0.9,0,1.8-0.1,2.7-0.1C55.5,103.7,55.4,103.8,55.4,104 M34.6,91c7.9-0.1,16.2,1.8,18.2,10.3c-0.6,0-1.1,0-1.7,0.1
		c0-0.1,0-0.1,0-0.2c-0.9-1.9-2.3-3.6-4.1-4.7c-1.5-0.9-3.8-1.9-5.5-1.2c-0.4,0.2-0.4,0.9,0,1.1c1.5,0.7,3.2,0.6,4.7,1.4
		c1.5,0.8,2.7,2,3.5,3.5c-1.2,0-2.4,0.1-3.6,0.1C41.6,99.6,38.6,94.2,34.6,91 M9.1,105c4.5-0.1,9-0.2,13.5-0.3
		c-5.1,9.6-18.2,3.1-27.4,1.6c6.4-3.7,14.3-7.7,21.4-7.5c3.1,0.1,3.8,2.1,6.2,3.5c0.2,0.1,0.3,0.2,0.4,0.4
		c-4.7,0.3-9.4,0.6-14.1,0.9C8.2,103.6,8.2,105,9.1,105 M170.5,99.9c-3.8-0.4-7.7-0.5-11.6-0.6c0-0.1,0-0.2,0-0.3
		c-2.3-7.8-10.9-12.6-18.7-12c-1.1,0.1-1.3,1.5-0.3,1.9c4.4,1.6,6,7.7,9.6,10.5c-2.3,0-4.7,0.1-7,0.1c-0.1-0.4-0.7-0.5-0.9,0
		c0,0,0,0,0,0.1c-0.8,0-1.7,0-2.5,0.1c0.1-0.3-0.1-0.6-0.5-0.6c-1.1,0-2.1,0.2-3,0.6c-1.6,0-3.3,0.1-4.9,0.1c-0.3,0-0.6,0-0.9,0
		c0,0,0-0.1-0.1-0.1c-0.3-0.3-0.5-0.5-0.8-0.8c0.9-3.1-0.9-6.2-3.6-8c-4.4-2.9-9.7-2-14.6-1.2c-0.7,0.1-0.9,1.1-0.4,1.6
		c3.3,2.9,6.6,5.9,10.1,8.6c-6.1,0.1-12.3,0.2-18.4,0.3c4.3-9.2-11.8-14.9-18.1-16.1c-1.1-0.2-1.6,1.1-0.7,1.7
		c3.4,2.5,3.2,7.7,5.7,11c1.2,1.5,2.6,2.7,4.2,3.6c-1.1,0-2.2,0-3.3,0.1c-1.9,0-3.8,0.1-5.6,0.1c-0.3-0.7-1.5-0.7-1.8,0
		c-2.5,0.1-5,0.1-7.4,0.2c-0.4-0.2-0.6-0.3-0.9-0.2c0.1-0.3,0.1-0.7,0.1-1c0-0.3,0-0.7-0.1-1c-0.1-1-0.4-2-0.7-2.9
		c-0.6-1.4-1.4-2.8-2.5-3.9c-2.3-2.6-5.5-4-9-4.1c-0.6,0-1,0.6-0.9,1.2c0.7,3.7,0.9,9.5,3.8,12.2c-3.3,0.1-6.7,0.2-10,0.3
		c-1.1-10.9-14.5-12.6-23.3-12c-0.8,0.1-1.4,1.3-0.5,1.8c4.9,2.1,7.9,7.8,12.2,10.6c-5.8,0.2-11.5,0.5-17.3,0.8
		c0.1-0.1,0.1-0.1,0.2-0.2c0.2-0.3,0.2-0.7,0-1c-0.1-0.1-0.2-0.3-0.2-0.4c-0.4-0.7-1.5-0.4-1.5,0.4c0.2-4.8-8.5-4.8-11.2-4.3
		c-7.6,1.3-15.2,5.1-21.7,9.1C-9.4,106.6-9,108-8,108c9.6-0.1,26.8,10,32-3.4c7.1-0.2,14.3-0.4,21.4-0.7c-3.6,2.8-7,5.8-10.4,8.9
		c-0.4,0.4-0.4,1.3,0.2,1.5c4.5,2,9.9,4.1,14.7,1.8c4.4-2.1,6.5-7.2,7.1-11.7c0.1-0.4-0.1-0.7-0.4-0.9c5.2-0.2,10.4-0.3,15.6-0.5
		c-3.9,2.4-6.9,6.1-8.7,10.5c-0.2,0.5,0.2,1,0.7,1.2c9.2,3.2,18.5-2.7,19.8-12c1.9-0.1,3.8-0.1,5.7-0.1c4.6-0.1,9.3-0.2,13.9-0.2
		c-3.9,2.8-3.5,11.7-8.4,13.3c-0.8,0.3-1,1.6,0,1.8c9.2,1.9,20.7-4.7,19.9-15.2c0,0,0,0,0-0.1c4.8-0.1,9.6-0.1,14.4-0.2
		c0.8,0,1.7,0,2.5,0c-3,2.9-5.2,7.2-7.2,9.9c-0.5,0.6,0.2,1.4,0.8,1.5c5.1,0.3,10.9,0.7,15.3-2.5c2.9-2.1,4.7-5.2,4.5-8.7
		c8.3,0.1,16.7,0.2,24.9-0.5C171.6,101.6,171.6,100,170.5,99.9"/>
</g>
</svg>
