<?xml version="1.0" encoding="UTF-8" standalone="no"?>
<svg width="200px" height="200px" viewBox="0 0 200 200" version="1.1" xmlns="http://www.w3.org/2000/svg" xmlns:xlink="http://www.w3.org/1999/xlink">
    <!-- Generator: Sketch 3.8.3 (29802) - http://www.bohemiancoding.com/sketch -->
    <title>icon102</title>
    <desc>Created with Sketch.</desc>
    <defs></defs>
    <g id="Page-1" stroke="none" stroke-width="1" fill="none" fill-rule="evenodd">
        <path d="M100,200 C155.228475,200 200,155.228475 200,100 C200,44.771525 155.228475,0 100,0 C44.771525,0 0,44.771525 0,100 C0,155.228475 44.771525,200 100,200 Z M128.125,75 C126.35,74.609375 121.875,62.5 121.875,62.5 C120.425,60.675 118.655,59.375 115.625,59.375 L84.375,59.375 C81.35,59.375 79.57,60.675 78.125,62.5 C78.125,62.5 73.65,74.609375 71.875,75 L59.375,75 C54.5,74.609375 50,79.1796875 50,84.375 L50,131.25 C50,136.054688 54.5,140.625 59.375,140.625 L140.625,140.625 C145.5,140.625 150,136.054688 150,131.25 L150,84.375 C150,79.1796875 145.5,74.609375 140.625,75 L128.125,75 Z M100,131.25 C86.19,131.25 75,120.06 75,106.25 C75,92.44 86.19,81.25 100,81.25 C113.805,81.25 125,92.44 125,106.25 C125,120.06 113.805,131.25 100,131.25 Z M100,90.625 C91.3697917,90.625 84.375,97.625 84.375,106.25 C84.375,114.875 91.3697917,121.875 100,121.875 C108.625,121.875 115.625,114.875 115.625,106.25 C115.625,97.625 108.625,90.625 100,90.625 Z M137.5,90.625 C135.772321,90.625 134.375,89.2242148 134.375,87.5 C134.375,85.7802463 135.772321,84.375 137.5,84.375 C139.227679,84.375 140.625,85.7757852 140.625,87.5 C140.625,89.2242148 139.227679,90.625 137.5,90.625 Z" id="icon102" fill="#FF9541"></path>
    </g>
</svg>