<?xml version="1.0" encoding="UTF-8" standalone="no"?>
<svg width="112px" height="112px" viewBox="0 0 112 112" version="1.1" xmlns="http://www.w3.org/2000/svg" xmlns:xlink="http://www.w3.org/1999/xlink">
    <!-- Generator: Sketch 3.8.3 (29802) - http://www.bohemiancoding.com/sketch -->
    <title>2</title>
    <desc>Created with Sketch.</desc>
    <defs></defs>
    <g id="Page-1" stroke="none" stroke-width="1" fill="none" fill-rule="evenodd">
        <g id="2" transform="translate(-1122.000000, -960.000000)">
            <g transform="translate(1122.000000, 960.000000)">
                <path d="M54.4075353,3.06212665 C55.2786386,7.19373623 56.7045726,7.19373623 57.5753574,3.06212665 C58.4467792,-1.06884593 59.5147169,-1.01310806 59.9485167,3.18666098 C60.3826351,7.38611152 61.7996511,7.53453351 63.0985028,3.51726619 C64.3979915,-0.500956637 65.4541445,-0.33374302 65.4458634,3.88800266 C65.4372639,8.11006685 66.8316662,8.40531832 68.5445706,4.54570955 C70.2571566,0.685463784 71.2903775,0.961605127 70.8393785,5.15914465 C70.3896535,9.35700267 71.74488,9.79653561 73.8524086,6.13630917 C75.9602556,2.47608274 76.9581228,2.85860379 76.0710944,6.98639135 C75.183429,11.1138604 76.4854656,11.6928973 78.9643677,8.27250293 C81.4442253,4.8521086 82.3971836,5.33686884 81.0817698,9.34935862 C79.7669931,13.3615299 81.0018258,14.0733822 83.8253471,10.9300847 C86.6495055,7.7874242 87.5457705,8.36900908 85.8178965,12.2222478 C84.0903409,16.075168 85.2436371,16.9115546 88.3812016,14.0810262 C91.518766,11.2498608 92.3494196,11.9212633 90.2275584,15.5732087 C88.1056972,19.2251541 89.1650353,20.1777939 92.5819261,17.6890183 C95.9984984,15.2011982 96.754304,15.9554112 94.2613878,19.3662505 C91.7694272,22.7770898 92.7233411,23.8341983 96.381338,21.7161592 C100.039972,19.59812 100.713604,20.4274996 97.877024,23.5590125 C95.040444,26.6911624 95.8784231,27.8422291 99.7386689,26.1175401 C103.598915,24.3931696 104.181455,25.2881605 101.032743,28.1065858 C97.884668,30.9256482 98.5974758,32.1579329 102.616654,30.8453856 C106.636469,29.5328384 107.122185,30.4835672 103.696058,32.9586472 C100.268975,35.4334088 100.848967,36.7328974 104.984399,35.847143 C109.119512,34.9613886 109.502352,35.9576633 105.835755,38.0613698 C102.16884,40.1650763 102.609329,41.5187104 106.814831,41.0689854 C111.020333,40.6192604 111.297111,41.6502518 107.429858,43.3596527 C103.562605,45.0693721 103.858812,46.4612264 108.088202,46.4529453 C112.317273,46.4443458 112.485124,47.4989063 108.459894,48.79521 C104.435301,50.0924691 104.583723,51.5072556 108.791136,51.9401 C112.997912,52.3729443 113.054287,53.4386525 108.915671,54.3088003 C104.777054,55.1786296 104.777054,56.6013786 108.915671,57.4712079 C113.054287,58.3407187 112.997912,59.4061083 108.791136,59.8392712 C104.583723,60.2724341 104.435301,61.687539 108.459894,62.9841612 C112.485124,64.2811018 112.317273,65.3350254 108.088202,65.3267443 C103.858812,65.3184633 103.562605,66.7099991 107.429858,68.4197185 C111.297111,70.1291194 111.020333,71.1601108 106.814831,70.7107043 C102.609329,70.2609793 102.16884,71.6142948 105.835755,73.7183198 C109.502352,75.8217079 109.119512,76.8179825 104.984399,75.9325466 C100.848967,75.0461552 100.268975,76.3462809 103.696058,78.8210424 C107.122185,81.2958039 106.636469,82.2468513 102.616654,80.934304 C98.5974758,79.6217568 97.884668,80.8540415 101.032743,83.6727853 C104.181455,86.4912106 103.598915,87.3865201 99.7386689,85.6615126 C95.8784231,83.9371421 95.040444,85.0882087 97.877024,88.2200402 C100.713604,91.3521901 100.039972,92.1815696 96.381338,90.0635305 C92.7233411,87.9451728 91.7694272,89.0025999 94.2613878,92.4131207 C96.754304,95.8239599 95.9984984,96.57881 92.5819261,94.0900343 C89.1650353,91.6018957 88.1056972,92.5542171 90.2275584,96.205844 C92.3494196,99.8581079 91.518766,100.530147 88.3812016,97.6986634 C85.2436371,94.867498 84.0903409,95.7038846 85.8178965,99.5574418 C87.5457705,103.410999 86.6495055,103.991947 83.8253471,100.848968 C81.0018258,97.7063075 79.7669931,98.4178412 81.0817698,102.430331 C82.3971836,106.442821 81.4442253,106.927263 78.9643677,103.507187 C76.4854656,100.086792 75.183429,100.665192 76.0710944,104.793298 C76.9581228,108.920767 75.9602556,109.30297 73.8524086,105.643062 C71.74488,101.982836 70.3896535,102.422368 70.8393785,106.620545 C71.2903775,110.817766 70.2571566,111.094226 68.5445706,107.23398 C66.8316662,103.373734 65.4372639,103.669941 65.4458634,107.891368 C65.4541445,112.113433 64.3979915,112.280328 63.0985028,108.262742 C61.7996511,104.244519 60.3826351,104.393578 59.9485167,108.593347 C59.5147169,112.792479 58.4467792,112.848217 57.5753574,108.717244 C56.7045726,104.586272 55.2786386,104.586272 54.4075353,108.717244 C53.5364319,112.848217 52.4684943,112.792479 52.0353314,108.593347 C51.601213,104.393578 50.1832416,104.244519 48.8843899,108.262742 C47.5852197,112.280328 46.5293852,112.113433 46.5379847,107.891368 C46.5456288,103.669941 45.151545,103.373734 43.438959,107.23398 C41.7263731,111.094226 40.6934707,110.817766 41.1438327,106.620545 C41.5945132,102.422368 40.2383312,101.982836 38.1308026,105.643062 C36.023274,109.30297 35.0254069,108.920767 35.9130723,104.793298 C36.8007377,100.665192 35.4983825,100.086792 33.018525,103.507187 C30.5396229,106.927263 29.5866646,106.442821 30.9017598,102.430331 C32.2162181,98.4178412 30.9820224,97.7063075 28.157864,100.848968 C25.3343427,103.991947 24.4371222,103.410999 26.1656332,99.5574418 C27.8935073,95.7038846 26.7402111,94.867498 23.6026466,97.6986634 C20.4650822,100.530147 19.6334731,99.8581079 21.7556528,96.205844 C23.8775139,92.5542171 22.8188129,91.6018957 19.4019221,94.0900343 C15.9843942,96.57881 15.2285887,95.8239599 17.7215048,92.4131207 C20.2141025,89.0025999 19.2598701,87.9451728 15.6018732,90.0635305 C11.9435578,92.1815696 11.2705628,91.3518716 14.1065057,88.2197217 C16.9424486,85.0882087 16.1044695,83.9371421 12.2442238,85.6615126 C8.38397801,87.3865201 7.80175612,86.4912106 10.9504681,83.6727853 C14.0991802,80.8540415 13.3863724,79.6217568 9.36623857,80.934304 C5.34642323,82.2465328 4.86102599,81.2958039 8.28779037,78.8210424 C11.7142362,76.3462809 11.1348809,75.0461552 6.99913076,75.9325466 C2.86401766,76.8179825 2.4805411,75.8217079 6.14745608,73.7183198 C9.81405256,71.6142948 9.37420112,70.2609793 5.16869904,70.7107043 C0.96351547,71.1601108 0.68641862,70.1291194 4.55430844,68.4197185 C8.42092425,66.7099991 8.12503578,65.3184633 3.89500904,65.3267443 C-0.334380695,65.3350254 -0.501275809,64.2811018 3.52331706,62.9841612 C7.54854693,61.687539 7.39948794,60.2724341 3.19207485,59.8392712 C-1.01470124,59.4061083 -1.07107611,58.3407187 3.06817752,57.4712079 C7.20679415,56.6013786 7.20679415,55.1786296 3.06817752,54.3088003 C-1.07107611,53.4386525 -1.01470124,52.3729443 3.19207485,51.9401 C7.39948794,51.5072556 7.54854693,50.0924691 3.52331706,48.79521 C-0.501275809,47.4989063 -0.334380695,46.4443458 3.89500904,46.4529453 C8.12503578,46.4612264 8.42092425,45.0693721 4.55430844,43.3596527 C0.68641862,41.6502518 0.96351547,40.6192604 5.16869904,41.0689854 C9.37420112,41.5183919 9.81405256,40.1650763 6.14745608,38.0613698 C2.4805411,35.9576633 2.86401766,34.9610701 6.99913076,35.847143 C11.1348809,36.7328974 11.7142362,35.4334088 8.28779037,32.9586472 C4.86102599,30.4835672 5.34642323,29.5328384 9.36623857,30.8453856 C13.3863724,32.1579329 14.0991802,30.9256482 10.9504681,28.1065858 C7.80175612,25.2881605 8.38397801,24.3931696 12.2442238,26.1175401 C16.1044695,27.8422291 16.9424486,26.6911624 14.1065057,23.5590125 C11.2705628,20.4274996 11.9435578,19.59812 15.6018732,21.7161592 C19.2598701,23.8341983 20.2141025,22.7770898 17.7215048,19.3662505 C15.2285887,15.9554112 15.9843942,15.2011982 19.4019221,17.6890183 C22.8188129,20.1777939 23.8775139,19.2251541 21.7556528,15.5732087 C19.6334731,11.9212633 20.4650822,11.2498608 23.6026466,14.0810262 C26.7402111,16.9115546 27.8935073,16.075168 26.1656332,12.2222478 C24.4371222,8.36900908 25.3343427,7.7874242 28.157864,10.9300847 C30.9820224,14.0733822 32.2162181,13.3615299 30.9017598,9.34935862 C29.5866646,5.33686884 30.5396229,4.8521086 33.018525,8.27250293 C35.4983825,11.6928973 36.8007377,11.1138604 35.9130723,6.98639135 C35.0254069,2.85860379 36.023274,2.47608274 38.1308026,6.13630917 C40.2383312,9.79653561 41.5945132,9.35700267 41.1438327,5.15914465 C40.6934707,0.961605127 41.7263731,0.685463784 43.438959,4.54570955 C45.151545,8.40531832 46.5456288,8.11006685 46.5379847,3.88800266 C46.5293852,-0.33374302 47.5852197,-0.500956637 48.8843899,3.51726619 C50.1832416,7.53453351 51.601213,7.38611152 52.0353314,3.18666098 C52.4684943,-1.01310806 53.5364319,-1.06884593 54.4075353,3.06212665" id="2-2" fill="#E13A35"></path>
                <g id="2-1" transform="translate(26.000000, 30.000000)" fill="#FFFFFF">
                    <path d="M0.5,42.25 L12.375,42.25 C13.0000031,46.6250219 15.2916469,48.9166656 19.25,49.125 C24.250025,48.9166656 26.9583312,44.9583719 27.375,37.25 C26.7499969,30.9999687 24.1458562,27.6666688 19.5625,27.25 C16.22915,27.4583344 13.9375063,29.5416469 12.6875,33.5 L0.8125,33.1875 L2.375,0.6875 L36.125,0.6875 L36.125,8.5 L12.6875,8.5 L12.0625,23.1875 C14.7708469,20.6874875 18.2083125,19.3333344 22.375,19.125 C33.2083875,19.5416688 38.8333312,25.8957719 39.25,38.1875 C37.9999937,49.854225 31.2292281,55.9999969 18.9375,56.625 C7.06244062,56.2083312 0.91666875,51.4167125 0.5,42.25 L0.5,42.25 Z" id="5"></path>
                    <text id="折" font-family="FZZYK--GBK1-0, FZZongYi-M05" font-size="24" font-weight="normal">
                        <tspan x="42" y="30">折</tspan>
                        <tspan x="42" y="57" font-size="18">起</tspan>
                    </text>
                </g>
            </g>
        </g>
    </g>
</svg>