<?xml version="1.0" encoding="UTF-8" standalone="no"?>
<svg width="200px" height="200px" viewBox="0 0 200 200" version="1.1" xmlns="http://www.w3.org/2000/svg" xmlns:xlink="http://www.w3.org/1999/xlink">
    <!-- Generator: Sketch 3.8.3 (29802) - http://www.bohemiancoding.com/sketch -->
    <title>icon101</title>
    <desc>Created with Sketch.</desc>
    <defs></defs>
    <g id="Page-1" stroke="none" stroke-width="1" fill="none" fill-rule="evenodd">
        <path d="M107.8125,121.875 L62.5,121.875 L90.625,84.375 L108.25,107.875 L117.1875,96.875 L137.5,121.875 L107.8125,121.875 Z M100,200 C155.228475,200 200,155.228475 200,100 C200,44.771525 155.228475,0 100,0 C44.771525,0 0,44.771525 0,100 C0,155.228475 44.771525,200 100,200 Z M60,140.625 C54.5,140.625 50,136.323529 50,131.066176 L50,68.9338235 C50,63.6764706 54.5,59.375 60,59.375 L140,59.375 C145.5,59.375 150,63.6764706 150,68.9338235 L150,131.066176 C150,136.323532 145.5,140.625 140,140.625 L60,140.625 Z M132.086775,77.2882246 C135.137742,80.3391906 135.137742,85.2858094 132.086775,88.3367754 C129.035809,91.3877415 124.089191,91.3877415 121.038225,88.3367754 C117.987258,85.2858094 117.987258,80.3391906 121.038225,77.2882246 C124.089191,74.2372585 129.035809,74.2372585 132.086775,77.2882246 Z" id="icon101" fill="#4481E6"></path>
    </g>
</svg>