<?xml version="1.0" encoding="utf-8"?>
<!-- Generator: Adobe Illustrator 19.0.0, SVG Export Plug-In . SVG Version: 6.00 Build 0)  -->
<svg version="1.1" id="图层_1" xmlns="http://www.w3.org/2000/svg" xmlns:xlink="http://www.w3.org/1999/xlink" x="0px" y="0px"
	 viewBox="-15 89 169 24" style="enable-background:new -15 89 169 24;" xml:space="preserve">
<style type="text/css">
	.st0{fill:#51C630;}
</style>
<title>Fill 99</title>
<desc>Created with Sketch.</desc>
<g id="Page-1">
	<path id="Fill-99" class="st0" d="M131.4,109.7c-0.4-2.5,0.2-4.8,1.9-6.8c0.1-0.2,0.1-0.3,0.1-0.5c0.2,0,0.4,0,0.6,0
		C135.2,105.1,134,108.4,131.4,109.7 M130.6,94.5c-0.1-0.3-0.3-0.7-0.4-1c0.9,0.2,1.7,0.4,2.6,0.7c1,0.4,2.1,0.9,2.7,1.9
		c0.6,1.1,0.3,2.5-1,3c-0.4,0.2-0.6,0.7-0.5,1c0,0-0.1,0-0.1,0C131.7,99.3,131.3,96.3,130.6,94.5 M116.6,100.3c-0.3,0-0.6,0-0.9,0
		c-2.5-2.5-4.2-5.5-5.1-8.9c1.9,0,3.6,0.7,4.9,2.1C117.3,95.5,117.3,97.9,116.6,100.3 M115.6,109.3c-1.2,1.4-3.1,1.9-4.8,1.6
		c1.6-2.6,3.2-5.2,4.7-7.9c0-0.1,0.1-0.1,0.1-0.2c0.2,0,0.3,0,0.5,0c0,0.1,0,0.2,0,0.3c0.2,1.1,0.7,2,0.7,3.1
		C116.7,107.3,116.3,108.5,115.6,109.3 M99.2,100.4c-0.2,0-0.5,0-0.7,0c-2.8-2.3-4.4-5.6-4.5-9.2C97.6,93.1,102.1,96.4,99.2,100.4
		 M83.6,108.7c-1.3,0.7-2.8,0.8-4.3,0.7c1.1-2.1,2.5-4.1,3.9-6c0.6,0,1.2,0,1.8,0c-0.1,0.2-0.1,0.5,0.1,0.8
		C86.1,105.7,85.2,107.8,83.6,108.7 M80.9,96c-0.2-0.5-0.3-1-0.6-1.5c1.2,0.5,2.4,1.1,3.4,2c0.7,0.6,1.3,1.2,1.6,2.1
		c0.3,0.9-0.1,1.2-0.5,1.9c-0.6,0-1.3,0-1.9,0c-0.4-0.4-0.7-0.8-0.9-1.2C81.4,98.3,81.2,97.2,80.9,96 M66.9,100.6
		c-0.3,0-0.5,0-0.8,0c-0.1,0-0.1,0-0.2,0c-2.5,0-3.1-2.8-3.6-4.7c-0.2-0.7-0.4-1.3-0.6-1.9c1.6,0.3,3.3,0.8,4.4,2
		C67.4,97.2,67.9,99.2,66.9,100.6 M65.8,108.9c-1,1.2-2.4,2-3.9,2.2c0.5-0.7,0.8-1.5,1.1-2.4c0.4-1.1,1.1-4,2.5-5.1
		c0.4,0,0.9,0,1.3,0C66.9,105.5,67.1,107.1,65.8,108.9 M49.6,110.5c0.7-0.8,1.2-1.8,1.6-2.9c0.6-1.3,1.2-3,2.3-4c0,0,0.1,0,0.1,0
		C55.1,106.9,52.8,110.3,49.6,110.5 M50.4,100.8c-1.9-1.6-3.1-3.9-3.4-6.4c2.7,1,4.6,3.4,4.9,6.4C51.4,100.7,50.9,100.7,50.4,100.8
		 M36.6,107.2c-0.6,1.7-2.3,2.8-4,2.9c0.6-2.2,1.4-4.4,2.5-6.5c0.4,0,0.8,0,1.2,0C36.7,104.8,37.1,105.9,36.6,107.2 M30.3,93.6
		c1.8-0.9,4.3-0.6,5.5,1.2c1.2,1.7,0.8,3.4,0,5C34.1,97.6,32.3,95.5,30.3,93.6 M19.3,100.9c-0.1,0.1-0.1,0.1-0.1,0.2h0
		c-1.4-2.3-2.9-4.6-4.5-6.8c1.8,0,3.8,0.3,5,1.7C21,97.5,20.8,99.6,19.3,100.9 M17.4,108.2c-1,1.1-2.3,1.7-3.7,1.9
		c0.6-1.6,1.5-3.1,2.6-4.4c0.7-0.8,1.7-1.5,2.5-2.3c0.1,0,0.2,0,0.3,0C18.9,105.2,18.8,106.7,17.4,108.2 M5.6,101.3
		c-0.1-0.2-0.3-0.3-0.6-0.2c-2.3,1-3.6-3.5-4.7-4.7c0,0-0.1-0.1-0.1-0.1c1.5-0.2,3-0.1,4.3,0.6c1.9,1.1,1.9,2.6,2,4.4
		C6.2,101.3,5.9,101.3,5.6,101.3 M2.4,108c-1.5,1-3.3,1.5-5.1,1.3c1.9-2.7,4.5-4.8,7.5-6.3c0.4,0,0.7,0,1.1,0
		C5.1,105.1,4.4,106.8,2.4,108 M-13.1,100.4c0.3-2.2,3.6-0.3,4.7,0.2c1,0.5,2,1.1,3.1,1.6c0,0.2,0.1,0.3,0.2,0.4
		C-7.5,102.6-13.5,103.7-13.1,100.4 M152.6,99.8c-5.5,0.1-11,0.2-16.5,0.3c1.3-1,1.7-3.1,0.9-4.6c-1.8-3.4-6.3-3-9.3-4.3l0,0
		c-0.1,0-0.1-0.1-0.2-0.1c-0.8-0.3-1.4,1.1-0.6,1.5c0.1,0,0.1,0.1,0.2,0.1c0,0,0,0,0,0c2.6,1,2.7,5.4,4.5,7.5
		c-4.4,0.1-8.7,0.1-13.1,0.2c2.3-5.7-3.4-11.5-9.3-10.6c-0.5,0.1-0.7,0.7-0.6,1.1c0.8,3.7,2.6,7,5.3,9.6c-4.2,0-8.4,0.1-12.6,0.1
		c0.7-1.5,0.7-3.5,0.1-5.1c-1.3-3.3-4.8-5-7.9-6.3c-0.6-0.3-1.3,0-1.4,0.8c-0.2,4.1,1.5,8,4.5,10.6c-3.2,0-6.4,0-9.6,0.1
		c0.2-1.2-0.1-2.9-0.5-3.5c-1.7-2.9-5.6-4.6-8.7-5.1c-1-0.2-1.7,1.1-0.7,1.7c2.3,1.3,2.1,4.6,3.6,6.6c0.1,0.1,0.2,0.2,0.3,0.4
		c-4,0-8,0-12.1,0.1c0.5-1.5,0.3-3.3-0.6-4.7c-1.7-2.8-5.3-3.5-8.4-4c-0.8-0.1-1.6,0.8-0.9,1.5c1.7,1.7,2,5.4,3.7,7.2
		c-3.1,0-6.2,0-9.2,0.1c-0.3-4.1-3.3-7.6-7.4-8.4c-0.5-0.1-1.1,0.2-1.1,0.8c0.1,2.9,1.2,5.6,3.2,7.6c-3.7,0-7.4,0.1-11.1,0.1
		c1.7-2,1.5-5.5-0.2-7.5c-2.2-2.6-6.2-2.7-8.7-0.6c-0.4,0.3-0.3,0.9,0,1.2c2.4,2.2,4.6,4.5,6.7,6.8c-4.5,0-9,0.1-13.6,0.2
		c1-1.5,0.9-3.8,0-5.3c-1.6-2.9-5.4-3.4-8.3-3c-0.5,0.1-1.1,0.7-0.7,1.2c1.7,2.4,3.4,4.8,5.2,7.2c-3.2,0-6.3,0.1-9.5,0.1
		c0.8-1.8-0.6-4.2-1.9-5.3c-2.6-2.2-6.4-1.6-9.4-0.9c-1.1,0.3-0.6,1.9,0.5,1.7c0.1,0,0.2,0,0.3-0.1c1.9-0.2,2.9,3.1,4.4,4.7
		c-1.9,0-3.8,0.1-5.7,0.1c0,0,0-0.1-0.1-0.1c-2-2-10.1-6.7-11.2-1.6c-0.4,1.8,0.6,3.4,2.3,4.1c2.6,1.2,5.3-0.1,7.9-0.4
		c0.4,0,0.5-0.4,0.4-0.7c2.1,0.1,4.1,0.1,6.2,0.2c-2.8,1.5-5.1,3.8-6.8,6.6c-0.3,0.5,0,1.2,0.5,1.3c4.8,1.2,11.9-2.1,12.1-7.7
		c2.8,0.1,5.6,0.1,8.4,0.2c-2.2,1.9-3.8,5.1-4.5,7.4c-0.2,0.6,0.3,1.1,0.9,1.1c2.5,0.3,5-0.8,6.7-2.8c1.2-1.5,2.3-3.7,1.8-5.6
		c4.2,0.1,8.4,0.1,12.6,0.1c-0.4,0.5-0.8,1.1-1.1,1.8c-0.9,1.7-1.5,3.5-2,5.4c-0.1,0.5,0.1,1.1,0.7,1.2c2.7,0.4,5.6-0.7,7-3.2
		c0.8-1.5,1-3.5,0.4-5.1c4.3,0,8.7,0,13,0c-1.5,2.2-2.4,5.4-4.6,6.8c-0.7,0.4-0.6,1.5,0.2,1.7c5.5,1.7,10.1-3.5,8.5-8.5
		c2.6,0,5.2,0,7.7,0c-0.1,0.1-0.3,0.3-0.4,0.4c-1.6,2.1-1.3,5.8-3.9,7.1c-0.7,0.4-0.6,1.6,0.2,1.7c2.8,0.6,5.8-0.3,7.7-2.5
		c1.4-1.7,2.4-4.5,1.7-6.8c4.2,0,8.4-0.1,12.6-0.2c-1.7,1.9-3.2,4.1-4.4,6.3c-0.4,0.7,0.1,1.3,0.8,1.4c2.7,0.3,5.9,0.3,8-1.8
		c1.6-1.6,2.2-4.1,1-6.1c3.9-0.1,7.8-0.1,11.6-0.2c0,0.2,0.1,0.4,0.2,0.5c1.2,1.3,2.2,2.5,1.3,4.3c-0.8,1.6-2.5,2.4-4.2,2.9
		c-0.5-2.5,0.2-4.9,2-6.8c0.4-0.5-0.2-1.1-0.7-0.7c-2.6,2.1-3.7,5.6-2.8,8.9c0.1,0.5,0.6,0.7,1.1,0.6c2.8-0.6,5.9-2,6.7-5
		c0.4-1.5,0.1-3.6-1.1-4.7c4.5-0.1,9-0.2,13.5-0.3c-1.9,2.7-3.8,5.4-5.6,8.2c-0.3,0.5,0,1.1,0.5,1.3c2.8,1.1,6.2,0.3,8-2.1
		c1.4-1.9,2-5.5,0.3-7.4c5-0.1,10-0.2,15-0.3c-2.3,2.2-3.3,5.6-2.5,8.6c0.1,0.4,0.6,0.7,1,0.6c3.9-1.1,6.1-5.6,4.7-9.3
		c5.6-0.1,11.2-0.2,16.9-0.4C154,102,154.1,99.7,152.6,99.8"/>
</g>
</svg>
