<?xml version="1.0" encoding="UTF-8" standalone="no"?>
<svg width="312px" height="11px" viewBox="0 0 312 11" version="1.1" xmlns="http://www.w3.org/2000/svg" xmlns:xlink="http://www.w3.org/1999/xlink">
    <!-- Generator: Sketch 3.8.3 (29802) - http://www.bohemiancoding.com/sketch -->
    <title>Page 1</title>
    <desc>Created with Sketch.</desc>
    <defs></defs>
    <g id="Page-1" stroke="none" stroke-width="1" fill="none" fill-rule="evenodd">
        <path d="M301.7,10.3 L311.3,5.1 L301.7,0 L297.4,4.3 L188.13,4.3 C179.891,2.817 162.156,0.157 160.197,4.3 L155.5,4.3 C155.146,2.773 153.81,1.6 152.1,1.6 C150.475,1.6 149.079,2.773 148.705,4.3 L144.103,4.3 C142.144,0.157 124.409,2.817 116.17,4.3 L13.884,4.3 L9.5,0 L0,5.1 L9.5,10.3 L13.9,5.9 L116.105,5.9 C124.324,7.404 142.173,10.131 144.109,5.9 L148.706,5.9 C149.079,7.427 150.475,8.6 152.1,8.6 C153.725,8.6 155.121,7.427 155.494,5.9 L160.191,5.9 C162.127,10.131 179.976,7.404 188.195,5.9 L297.385,5.9 L301.7,10.3 Z" fill="#F87823"></path>
    </g>
</svg>