<?xml version="1.0" encoding="UTF-8" standalone="no"?>
<svg width="300px" height="297px" viewBox="0 0 300 297" version="1.1" xmlns="http://www.w3.org/2000/svg" xmlns:xlink="http://www.w3.org/1999/xlink">
    <!-- Generator: Sketch 3.8.2 (29753) - http://www.bohemiancoding.com/sketch -->
    <title>candle</title>
    <desc>Created with Sketch.</desc>
    <defs></defs>
    <g id="Page-1" stroke="none" stroke-width="1" fill="none" fill-rule="evenodd">
        <g id="candle" fill="#A51E21">
            <g id="Layer_1">
                <g id="Group">
                    <path d="M3.62804674,119.9985 C2.34540902,116.1845 11.642404,101.6325 8.83672788,92.0055 C8.26627713,90.0495 7.60617696,87.602 6.1427379,86.517 C0.868447412,82.604 2.14507513,78.603 4.67078464,73.776 C6.83539232,69.6385 8.49866444,65.1205 9.61452421,60.5825 C10.930217,55.232 10.157429,50.1595 5.59432387,46.093 C2.99899833,43.7815 0.868447412,40.7405 3.66410684,37.18 C9.70717863,29.4855 10.4213689,21.05 7.6327212,12.007 C7.36677796,11.1425 7.31168614,10.214 7.06227045,8.75 C11.8682805,8.9805 16.3227045,9.4035 20.7716194,9.3445 C25.127379,9.287 29.4806344,9.0065 31.8420701,4.1315 C32.3028381,3.1805 34.7619366,2.5045 36.0445743,2.8005 C37.9813022,3.248 39.7948247,4.5185 41.4871452,5.689 C52.4058431,13.2475 61.0247078,13.99 71.5898164,6.151 C77.3464107,1.8795 81.2614357,2.905 85.8656093,6.785 C87.166778,7.8805 88.7679466,8.704 89.8222037,9.986 C91.1689482,11.6235 93.4432387,14.65 92.9749583,15.2475 C91.1338898,17.594 88.6357262,20.179 85.9026711,20.9225 C79.9427379,22.5435 73.6086811,22.7455 67.5751252,24.156 C57.8008347,26.441 48.4457429,27.8525 41.1931553,18.58 C40.7854758,18.0575 39.8669449,17.9325 38.4846411,17.3025 C36.7387312,25.583 31.5706177,23.315 26.2687813,21.4355 C21.1873122,19.633 20.327379,20.4815 20.8517529,25.9845 C21.3936561,31.6825 22.3622705,37.5185 15.3856427,41.0605 C23.7580968,52.6755 23.4080134,64.4815 17.4330551,76.925 C16.3021703,79.2825 18.009015,83.706 19.5851419,86.518 C24.4582638,95.2135 24.0445743,108.6575 17.8392321,116.429 C14.4245409,120.7065 9.78981636,121.002 3.62804674,119.9985 L3.62804674,119.9985 Z" id="Shape"></path>
                    <path d="M285.72621,115.597 C277.345242,106.0435 278.498164,96.6585 284.167112,86.9605 C284.893823,85.7175 284.480134,83.4175 283.895159,81.8725 C281.890818,76.5805 279.171285,71.5335 277.476461,66.1585 C275.207179,58.961 275.718531,52.089 281.379466,46.1195 C284.634891,42.688 286.750918,38.9955 281.86778,34.505 C280.249082,33.0165 280.660768,29.221 280.346745,26.456 C280.065776,23.9715 280.064274,21.457 279.854925,17.3115 C272.767112,22.793 267.344574,19.578 261.865943,16.989 C258.244908,15.277 255.856928,15.867 252.46828,18.8025 C244.217028,25.952 237.733723,29.317 226.769449,23.542 C218.954424,19.426 207.851419,15.526 203.798664,10.208 C207.419699,1.8195 212.299332,0.581 219.248414,6.546 C228.321035,14.333 242.569282,13.554 250.953756,4.8115 C257.129048,-1.626 260.181135,-1.1945 265.811519,5.88 C267.469783,7.965 270.658598,9.7795 273.268447,9.959 C278.052922,10.29 282.928047,9.3125 288.565442,8.8095 C288.805843,10.5495 289.207012,13.0685 289.495492,15.5975 C290.3399,22.986 291.428214,30.2135 297.190818,35.818 C298.025209,36.6295 297.959599,38.9185 297.55192,40.3005 C297.093155,41.855 295.897663,43.2595 294.80985,44.5515 C285.8399,55.207 285.502337,59.573 292.884641,71.78 C296.738564,78.153 298.694324,83.9615 294.560434,91.735 C290.584808,99.2115 291.721703,107.894 296.337896,115.535 C299.073957,120.0605 297.977129,123.3125 292.258097,128.372 C288.466778,131.7245 284.477629,131.327 280.899165,128.6475 C277.764942,126.3 277.007679,123.093 280.567613,120.088 C282.136227,118.763 283.66828,117.392 285.72621,115.597 L285.72621,115.597 Z" id="Shape"></path>
                    <path d="M10.7168614,263.2205 C20.2131886,265.623 16.5986644,272.46 17.4255426,275.6775 C23.2417362,276.7545 28.081803,278.0175 32.9924875,278.417 C35.8322204,278.6475 39.5198664,278.408 41.5612688,276.789 C51.6550918,268.788 60.257429,268.37 69.884975,276.4005 C74.0689482,279.8905 78.4041736,281.0585 83.4806344,278.5335 C84.7953255,277.88 86.2888147,277.5855 88.0447412,277.013 C89.3233723,279.679 91.2550918,282.1135 91.4624374,284.686 C91.6081803,286.488 89.7240401,288.802 88.1894825,290.3295 C81.5799666,296.9095 81.1327212,297.215 74.6599332,290.898 C63.7953255,280.2955 48.4131886,285.0495 40.2891486,292.393 C39.2123539,293.3665 38.6799666,294.94 37.4699499,296.94 C28.0772955,282.515 15.8559265,289.388 4.05475793,289.8285 C5.04641068,285.7085 6.14023372,282.012 6.78580968,278.2395 C7.41786311,274.546 6.79081803,271.09 3.26143573,268.8175 C-1.00467446,266.0715 -0.430217028,262.787 2.24724541,259.288 C3.85342237,257.1905 5.41953255,255.0595 7.06176962,252.991 C11.9779633,246.8025 12.2128548,237.897 7.63672788,231.4185 C5.46410684,228.3395 3.21035058,225.3035 1.26661102,222.0855 C-0.539899833,219.0925 0.531886477,216.7845 3.49883139,215.0455 C8.90834725,211.8745 18.1101836,214.2445 20.9293823,219.7955 C21.4477462,220.817 21.2208681,222.243 21.2474124,223.483 C21.3405676,227.8425 20.2517529,232.6285 21.6981636,236.4695 C24.7217028,244.5015 23.7355593,250.705 16.9452421,256.1045 C14.8432387,257.7775 13.3277129,260.1875 10.7168614,263.2205 L10.7168614,263.2205 Z" id="Shape"></path>
                    <path d="M293.729048,289.658 C289.24207,288.7725 286.162938,288.1775 283.087312,287.5575 C276.475793,286.2225 270.303506,286.3405 265.501503,292.1425 C263.540234,294.5105 261.151252,295.8495 258.187312,293.373 C247.453422,284.404 236.454591,285.5205 225.268948,292.508 C219.866444,295.882 209.46611,292.221 207.895492,286.097 C207.549416,284.7485 209.270785,281.762 210.663606,281.262 C216.948581,279.011 223.818531,278.1485 229.796995,275.34 C237.870952,271.548 245.05793,271.8975 252.298497,276.6445 C256.112354,279.1425 259.718865,281.2335 263.913356,276.9335 C264.799833,276.0265 267.440735,276.5675 269.210184,276.8435 C271.623205,277.2215 273.950584,278.2955 276.361603,278.5055 C279.45576,278.773 281.341402,277.3295 279.645576,274.0505 C276.643573,268.243 277.562104,262.9245 280.504508,257.3485 C284.209683,250.33 282.62404,243.284 278.895326,236.821 C276.088147,231.954 277.001669,227.8835 280.023205,223.7195 C283.09783,219.484 287.233222,218.8055 292.099833,219.5625 C296.311853,220.218 297.011519,222.452 295.680801,225.954 C295.283639,227 294.705676,227.991 294.116694,228.95 C287.929382,239.039 288.180801,242.87 295.676795,252.1795 C301.169449,259.001 301.23005,259.0565 295.21803,265.607 C291.032554,270.1665 289.294157,275.0895 291.649583,281.151 C292.510017,283.366 292.810518,285.798 293.729048,289.658 L293.729048,289.658 Z" id="Shape"></path>
                </g>
            </g>
        </g>
    </g>
</svg>