<?xml version="1.0" encoding="UTF-8" standalone="no"?>
<svg width="200px" height="200px" viewBox="0 0 200 200" version="1.1" xmlns="http://www.w3.org/2000/svg" xmlns:xlink="http://www.w3.org/1999/xlink">
    <!-- Generator: Sketch 3.8.3 (29802) - http://www.bohemiancoding.com/sketch -->
    <title>icon103</title>
    <desc>Created with Sketch.</desc>
    <defs></defs>
    <g id="Page-1" stroke="none" stroke-width="1" fill="none" fill-rule="evenodd">
        <g id="icon103" fill="#49C1FB">
            <g id="zhihu_c">
                <g id="Page-1">
                    <g id="circle-icons">
                        <g id="row-2-circle-icons">
                            <path d="M100,200 C155.228476,200 200,155.228478 200,100 C200,44.7715224 155.228476,0 100,0 C44.771524,0 0,44.7715224 0,100 C0,155.228478 44.771524,200 100,200 L100,200 Z M65.56146,42.6987924 C65.56146,42.6987924 57.07572,43.1979532 54.080752,48.439148 C51.085784,53.680342 41.352136,80.6350564 41.352136,80.6350564 C41.352136,80.6350564 44.596684,82.1325396 50.08746,78.1392488 C55.578232,74.1459588 57.3253,67.1576984 57.3253,67.1576984 L67.308528,66.6585376 L67.558108,95.1107352 C67.558108,95.1107352 50.33704,94.8611516 46.842912,95.1107336 C43.34878,95.360316 41.352136,104.5948 41.352136,104.5948 L67.558108,104.5948 C67.558108,104.5948 65.31188,120.318383 58.573204,131.799096 C51.834524,143.279809 39.105908,152.26471 39.105908,152.26471 C39.105908,152.26471 48.340396,156.008424 57.3253,150.767227 C66.310204,145.52603 72.9348,122.475907 72.9348,122.475907 L94.01366,148.27142 C94.01366,148.27142 95.9372,135.99424 93.672352,132.526185 C91.4075,129.058129 79.092368,115.115136 79.092368,115.115136 L73.713344,119.857171 L77.541336,104.5948 L100.502756,104.594801 C100.502756,104.594801 100.50276,95.6098964 96.010304,95.1107336 C91.517852,94.6115712 77.541336,95.1107336 77.541336,95.1107336 L77.541336,67.1576984 L98.256532,67.1576988 C98.256532,67.1576988 98.006952,57.9232136 94.01366,57.9232136 L60.320268,57.9232136 L65.56146,42.6987924 L65.56146,42.6987924 Z M105.404264,57.0413956 L152.632288,57.0413956 L152.632288,141.078582 L131.759704,141.078582 L116.910672,151.628119 L113.842224,141.078582 L105.404264,141.078582 L105.404264,57.0413956 L105.404264,57.0413956 Z M115.403592,66.3945096 L143.033352,66.3945096 L143.033352,131.533754 L133.218376,131.533754 L120.7078,140.965417 L117.980148,131.533754 L115.403592,131.533754 L115.403592,66.3945096 L115.403592,66.3945096 Z" id="zhihu_c"></path>
                        </g>
                    </g>
                </g>
            </g>
        </g>
    </g>
</svg>