<?xml version="1.0" encoding="UTF-8" standalone="no"?>
<svg width="70px" height="96px" viewBox="0 0 70 96" version="1.1" xmlns="http://www.w3.org/2000/svg" xmlns:xlink="http://www.w3.org/1999/xlink" xmlns:sketch="http://www.bohemiancoding.com/sketch/ns">
    <!-- Generator: Sketch 3.4.3 (16044) - http://www.bohemiancoding.com/sketch -->
    <title>shape24</title>
    <desc>Created with Sketch.</desc>
    <defs></defs>
    <g id="Page-1" stroke="none" stroke-width="1" fill="white" fill-rule="evenodd" sketch:type="MSPage">
        <g id="shape24" sketch:type="MSLayerGroup">
            <path class="color1-fill" d="M69.471907,60.8417209 L69.4631163,60.742093 L69.4631163,60.6411628 L69.4631163,60.5666047 L69.4631163,60.508 L69.4631163,60.0417674 L69.4631163,56.3099535 L69.4631163,34.9055814 C69.7330233,34.0170698 69.8707442,33.1148837 69.8707442,32.2055349 C69.8707442,31.2952093 69.7333488,30.3926977 69.4631163,29.5032093 L69.4631163,29.3039535 C69.4403256,29.2967907 69.4175349,29.2906047 69.3944186,29.284093 C68.5755814,26.7966512 66.7132558,24.4215349 63.889814,22.2977674 L63.6264186,22.0991628 L63.7546977,21.7872558 C64.1190233,20.9023256 64.3042791,19.9744186 64.3042791,19.0289302 C64.3042791,14.476 60.0059535,10.7725116 54.7227442,10.7725116 C53.5806047,10.7725116 52.4628837,10.944093 51.4011628,11.2830233 L50.9967907,11.4116279 L50.8926047,10.9828372 C50.1528837,7.9327907 48.2042791,5.15427907 45.405907,3.15846512 C44.0049302,2.15925581 42.434,1.38013953 40.7370698,0.842604651 C38.9786047,0.285534884 37.128,0.00293023256 35.238,0.00293023256 C33.3483256,0.00293023256 31.4983721,0.285209302 29.7395814,0.842604651 C28.0433023,1.38013953 26.4730233,2.15860465 25.0713953,3.15748837 C22.2736744,5.15330233 20.3247442,7.93083721 19.5843721,10.979907 L19.4769302,11.424 L19.0627907,11.2755349 C17.8972093,10.857814 16.6613023,10.6458605 15.3902326,10.6458605 C10.1073488,10.6458605 5.80902326,14.3496744 5.80902326,18.9019535 C5.80902326,19.834093 5.98874419,20.7486512 6.34297674,21.6218605 L6.47027907,21.9363721 L6.20297674,22.1326977 C3.24930233,24.3023721 1.31013953,26.7383721 0.473069767,29.2954884 C0.463302326,29.2984186 0.453860465,29.3010233 0.444093023,29.3039535 L0.444093023,29.3853488 C0.150418605,30.3122791 0,31.254186 0,32.2055349 C0,33.1555814 0.150418605,34.097814 0.444093023,35.024093 L0.444093023,56.3099535 L0.444093023,60.0417674 L0.444093023,60.508 L0.444093023,60.5666047 L0.444093023,60.5753953 L0.443767442,60.5838605 L0.44344186,60.6330233 L0.443116279,60.6750233 L0.441813953,60.7176744 L0.440837209,60.7326512 C0.438883721,60.976186 0.450604651,65.894093 4.4275814,72.3305116 C6.95311628,76.4188372 10.5351628,80.3062791 15.0737674,83.8844186 C20.5568837,88.2068372 27.4468372,92.0770233 35.5645581,95.3953488 C43.662093,92.0832093 50.477814,88.2211628 55.8368837,83.9101395 C60.2595814,80.3505581 63.6928372,76.4878605 66.041907,72.428186 C69.8085581,65.9207907 69.4829767,60.9797674 69.4790698,60.9273488 L69.471907,60.8417209 L69.471907,60.8417209 Z" id="Fill-1" fill="#42C2B3" sketch:type="MSShapeGroup"></path>
            <path class="color2-fill" d="M35.5642326,92.5382419 C28.1093953,89.4077767 21.77,85.8019628 16.7078605,81.8113116 C12.4127907,78.4255907 9.03651163,74.768986 6.67311628,70.9434047 C3.24995349,65.402986 3.08781395,61.1375442 3.08065116,60.7768 L3.0835814,60.5078698 L3.0835814,34.6156837 L2.96018605,34.2262884 C2.74725581,33.5552651 2.63948837,32.8751256 2.63948837,32.2054047 C2.63948837,31.5350326 2.74725581,30.8545674 2.96018605,30.1825674 L2.98134884,30.1168 C3.64195349,28.0988465 5.29623256,26.0737302 7.76609302,24.2595907 L9.68767442,22.8478698 L8.78906977,20.6303349 C8.56311628,20.0729395 8.44851163,19.4914512 8.44851163,18.9021488 C8.44851163,15.804893 11.5626977,13.2855442 15.3902326,13.2855442 C16.3572093,13.2855442 17.2932558,13.4450791 18.172,13.7602419 L21.3496744,14.9014047 L22.1496279,11.6019628 C22.7402326,9.17019535 24.3222326,6.93377674 26.6042326,5.30652093 C27.779907,4.46814884 29.1030698,3.81307907 30.5369302,3.35856744 C32.0372093,2.8832186 33.6188837,2.64228837 35.238,2.64228837 C36.8574419,2.64228837 38.4391163,2.8832186 39.9400465,3.35889302 C41.373907,3.81340465 42.6970698,4.46847442 43.8730698,5.30749767 C46.1553953,6.93442791 47.7370698,9.17117209 48.3273488,11.604893 L49.0999535,14.7864744 L52.2027442,13.7976837 C53.0053023,13.5417767 53.8531163,13.4118698 54.7227442,13.4118698 C58.5506047,13.4118698 61.6647907,15.9318698 61.6647907,19.0288 C61.6647907,19.6272186 61.5466047,20.2171721 61.313814,20.7823814 L60.4086977,22.9816837 L62.3029302,24.4070791 C64.6568837,26.1775907 66.241814,28.1496372 66.8871163,30.108986 L66.9375814,30.2701488 C67.1326047,30.9121953 67.2315814,31.5636837 67.2315814,32.2054047 C67.2315814,32.8458233 67.1326047,33.4966605 66.9375814,34.138707 L66.8236279,34.5137767 L66.8236279,60.8559163 L66.8454419,61.1079163 C66.8555349,61.3986605 66.9353023,65.6155907 63.7576279,71.1058698 C61.5723256,74.8829395 58.3506977,78.4988465 54.1819535,81.8536372 C49.241907,85.8276837 42.9822791,89.4194977 35.5642326,92.5382419" id="Fill-2" fill="#FFFFFF" sketch:type="MSShapeGroup"></path>
        </g>
    </g>
</svg>